<svg xmlns="http://www.w3.org/2000/svg" version="1.1" xmlns:xlink="http://www.w3.org/1999/xlink" xmlns:svgjs="http://svgjs.com/svgjs" width="1440" height="560" preserveAspectRatio="none" viewBox="0 0 1440 560"><g mask="url(&quot;#SvgjsMask1010&quot;)" fill="none"><rect width="1440" height="560" x="0" y="0" fill="#0e2a47"></rect><path d="M1319.13 97.91a22.88 22.88 0 1 0 5.23 45.46z" stroke="#e73635"></path><path d="M214.02 136.78a29.37 29.37 0 1 0 56.38-16.5z" stroke="#037b0b"></path><path d="M291.7 175.51 a32.28 32.28 0 1 0 64.56 0 a32.28 32.28 0 1 0 -64.56 0z" stroke="#037b0b"></path><path d="M175.57 307.41 a22.38 22.38 0 1 0 44.76 0 a22.38 22.38 0 1 0 -44.76 0z" fill="#d3b714"></path><path d="M1050.56 60.66L1100.44 60.66L1100.44 110.54L1050.56 110.54z" fill="#e73635"></path><path d="M741.14 269.48a5.19 5.19 0 1 0 0.04 10.38z" stroke="#d3b714"></path><path d="M191.51 179.24L206.94 179.24L206.94 194.67L191.51 194.67z" fill="#037b0b"></path><path d="M337.88 443.77a51.48 51.48 0 1 0-70.25-75.28z" stroke="#037b0b"></path><path d="M1194.74 159.36L1216.33 159.36L1216.33 206.56L1194.74 206.56z" stroke="#e73635"></path><path d="M512.43 462.82L541.3 462.82L541.3 487.17L512.43 487.17z" stroke="#037b0b"></path><path d="M885.97 394.27L925.25 394.27L925.25 433.55L885.97 433.55z" stroke="#037b0b"></path><path d="M616.45 333.92 a1.42 1.42 0 1 0 2.84 0 a1.42 1.42 0 1 0 -2.84 0z" fill="#d3b714"></path><path d="M1229.54 112.2a33.73 33.73 0 1 0-12.37 66.31z" fill="#e73635"></path><path d="M1284.23 460.52L1323.78 460.52L1323.78 491.27L1284.23 491.27z" stroke="#e73635"></path><path d="M236.8 278.5a21.65 21.65 0 1 0-43.21 2.84z" stroke="#037b0b"></path><path d="M112.08 538a7.97 7.97 0 1 0 8.81 13.28z" fill="#e73635"></path><path d="M910.18 362.39L964.75 362.39L964.75 410.98L910.18 410.98z" stroke="#037b0b"></path><path d="M615.18 91.31 a48.72 48.72 0 1 0 97.44 0 a48.72 48.72 0 1 0 -97.44 0z" stroke="#d3b714"></path><path d="M956.59 539L995.08 539L995.08 590.57L956.59 590.57z" fill="#037b0b"></path><path d="M727.36 123.21 a5.11 5.11 0 1 0 10.22 0 a5.11 5.11 0 1 0 -10.22 0z" fill="#d3b714"></path><path d="M391.92 48.53a38 38 0 1 0 70.82-27.58z" stroke="#e73635"></path><path d="M1050.77 222.58L1054.45 222.58L1054.45 226.26L1050.77 226.26z" fill="#d3b714"></path><path d="M416.97 514.13L416.97 514.13L416.97 514.13L416.97 514.13z" fill="#d3b714"></path><path d="M858.83 215.08a10.85 10.85 0 1 0-21.24 4.44z" stroke="#037b0b"></path><path d="M1323.61 192.29L1377.28 192.29L1377.28 238.77L1323.61 238.77z" fill="#d3b714"></path><path d="M1254.34 351.78 a2.27 2.27 0 1 0 4.54 0 a2.27 2.27 0 1 0 -4.54 0z" stroke="#d3b714"></path><path d="M1140.45 248.66 a34.83 34.83 0 1 0 69.66 0 a34.83 34.83 0 1 0 -69.66 0z" fill="#d3b714"></path><path d="M794.35 320.91a53.82 53.82 0 1 0-15.67 106.5z" stroke="#e73635"></path><path d="M944.2 164.69L958.26 164.69L958.26 182.65L944.2 182.65z" fill="#037b0b"></path><path d="M1174.25 282.04 a30.25 30.25 0 1 0 60.5 0 a30.25 30.25 0 1 0 -60.5 0z" fill="#d3b714"></path><path d="M556.89 57.08L563.48 57.08L563.48 106L556.89 106z" stroke="#e73635"></path><path d="M621.17 330.09L643.09 330.09L643.09 352.01L621.17 352.01z" fill="#037b0b"></path><path d="M1220.38 396.41a2.11 2.11 0 1 0-4.22-0.27z" fill="#037b0b"></path></g><defs><mask id="SvgjsMask1010"><rect width="1440" height="560" fill="#ffffff"></rect></mask></defs></svg>